<?xml version="1.0" encoding="UTF-8"?> <svg xmlns="http://www.w3.org/2000/svg" width="277" height="278" viewBox="0 0 277 278" fill="none"><rect width="276.88" height="277.619" rx="138.44" fill="black" fill-opacity="0.6"></rect><g clip-path="url(#clip0_322_33)"><path fill-rule="evenodd" clip-rule="evenodd" d="M149.595 120.173C153.56 118.196 158.605 115.285 163.657 111.298C164.722 113.51 164.838 115.44 164.29 116.998C163.901 118.096 163.168 119.052 162.205 119.812C161.161 120.633 159.858 121.231 158.418 121.554C155.684 122.17 152.493 121.81 149.595 120.173ZM150.283 140.431L155.531 143.462C144.814 149.469 141.901 160.622 138.44 171.486C134.98 160.622 132.066 149.469 121.35 143.462L126.598 140.431C127.106 140.239 127.54 139.891 127.838 139.437C128.136 138.984 128.283 138.447 128.257 137.905C127.776 127.731 130.524 123.232 134.229 120.408C135.558 119.396 137.009 118.888 138.44 118.888C139.872 118.888 141.323 119.396 142.652 120.408C146.357 123.232 149.104 127.731 148.624 137.905C148.598 138.447 148.745 138.984 149.043 139.437C149.341 139.891 149.775 140.239 150.283 140.431ZM138.44 74C144.507 74.1629 150.589 75.3407 155.868 77.6319C159.523 79.2206 162.934 81.3192 166.022 83.8286C167.417 84.9615 168.565 86.0559 169.83 87.3158C173.242 87.4337 178.229 83.6432 180.544 80.0964C176.56 93.1577 158.38 108.582 145.793 114.484C145.788 114.482 145.784 114.479 145.781 114.476C143.522 112.751 140.981 111.889 138.44 111.889C135.899 111.889 133.359 112.751 131.1 114.476C131.096 114.478 131.093 114.482 131.088 114.484C118.501 108.582 100.321 93.1577 96.3369 80.0964C98.6515 83.6432 103.638 87.4337 107.05 87.3158C108.315 86.0563 109.464 84.9615 110.858 83.8286C113.947 81.3192 117.357 79.2206 121.012 77.6319C126.291 75.3407 132.374 74.1629 138.44 74ZM127.285 120.173C123.321 118.196 118.275 115.285 113.224 111.298C112.159 113.51 112.042 115.44 112.591 116.998C112.98 118.096 113.713 119.052 114.676 119.812C115.72 120.633 117.023 121.231 118.463 121.554C121.197 122.17 124.387 121.81 127.285 120.173Z" fill="white"></path><path fill-rule="evenodd" clip-rule="evenodd" d="M169.189 106.412C171.969 103.605 174.42 100.499 176.39 97.7277L177.391 99.611C180.612 106.056 182.286 112.475 182.286 119.699L182.279 131.163L182.339 137.105C182.573 151.695 185.729 166.455 192.88 179.963L177.919 167.899L167.333 185.078L156.212 174.608L138.44 203.448L120.668 174.609L109.547 185.078L98.9615 167.9L84 179.964C91.1507 166.456 94.3073 151.695 94.5411 137.106L94.6015 131.163L94.5946 119.7C94.5946 112.475 96.268 106.056 99.4903 99.6115L100.491 97.7281C102.461 100.5 104.911 103.605 107.692 106.412L106.823 108.216C105.136 111.72 104.577 115.637 105.892 119.363C106.739 121.762 108.285 123.82 110.279 125.391C112.215 126.917 114.505 127.945 116.904 128.485C118.466 128.837 120.058 128.982 121.639 128.933C121.27 131.024 121.109 133.194 121.099 135.404L106.986 143.555L117.876 149.66C118.747 150.148 119.575 150.707 120.354 151.332C129.333 159.393 134.731 183.242 138.44 194.891C142.151 183.242 147.548 159.393 156.527 151.332C157.306 150.707 158.134 150.148 159.005 149.66L169.896 143.555L155.782 135.404C155.772 133.194 155.611 131.024 155.242 128.933C156.823 128.982 158.415 128.837 159.977 128.485C162.375 127.945 164.667 126.917 166.602 125.391C168.595 123.82 170.142 121.762 170.989 119.363C172.303 115.637 171.744 111.72 170.058 108.216L169.189 106.412L169.189 106.412Z" fill="white"></path></g><defs><clipPath id="clip0_322_33"><rect width="108.88" height="129.619" fill="white" transform="translate(84 74)"></rect></clipPath></defs></svg> 