<?xml version="1.0" encoding="UTF-8"?> <svg xmlns="http://www.w3.org/2000/svg" width="274" height="277" viewBox="0 0 274 277" fill="none"><rect x="0.879883" width="273" height="277" rx="136.5" fill="black" fill-opacity="0.6"></rect><g clip-path="url(#clip0_322_25)"><path fill-rule="evenodd" clip-rule="evenodd" d="M183.72 93.3945C190.202 90.6651 197.151 96.1464 196.006 103.086L182.488 185.053C181.184 192.956 172.504 197.491 165.253 193.553C159.186 190.257 150.184 185.185 142.071 179.884C138.02 177.236 125.615 168.748 127.14 162.706C128.444 157.539 149.297 138.128 161.214 126.583C165.895 122.049 163.763 119.429 158.235 123.604C144.521 133.962 122.504 149.709 115.223 154.141C108.799 158.051 105.445 158.718 101.444 158.051C94.1387 156.833 87.3655 154.948 81.8356 152.656C74.3617 149.557 74.7257 139.287 81.8306 136.295L183.72 93.3945Z" fill="white"></path></g><defs><clipPath id="clip0_322_25"><rect width="143" height="143" fill="white" transform="translate(65.8799 67)"></rect></clipPath></defs></svg> 