<?xml version="1.0" standalone="no"?>
<!DOCTYPE svg PUBLIC "-//W3C//DTD SVG 20010904//EN"
 "http://www.w3.org/TR/2001/REC-SVG-20010904/DTD/svg10.dtd">
<svg version="1.0" xmlns="http://www.w3.org/2000/svg"
 width="16.000000pt" height="16.000000pt" viewBox="0 0 16.000000 16.000000"
 preserveAspectRatio="xMidYMid meet">

<g transform="translate(0.000000,16.000000) scale(0.100000,-0.100000)"
fill="#000000" stroke="none">
<path d="M0 94 c0 -55 3 -65 15 -60 8 3 15 1 15 -4 0 -6 -8 -10 -17 -11 -14 0
-12 -3 5 -10 27 -10 121 -8 128 3 3 4 0 17 -7 30 -9 17 -9 24 5 33 17 13 23
85 7 85 -5 0 -8 -12 -8 -26 0 -31 -16 -49 -37 -41 -23 9 -20 38 4 44 38 10 9
23 -51 23 l-59 0 0 -66z m70 17 c0 -5 -6 -8 -12 -7 -7 0 -13 -3 -13 -9 0 -5 6
-9 14 -8 9 1 10 -2 2 -10 -14 -14 -42 9 -34 29 6 15 43 20 43 5z"/>
<path d="M117 133 c-10 -3 -16 -10 -14 -16 6 -20 24 -18 30 3 3 11 4 19 4 19
-1 -1 -10 -3 -20 -6z"/>
</g>
</svg>
